<svg id="Artboard_30" height="512" viewBox="0 0 64 64" width="512" xmlns="http://www.w3.org/2000/svg" data-name="Artboard 30"><path d="m16.689 22.159a22.447 22.447 0 0 0 -14.689 13.841l6-2 1 7 3.776-5.934a21.685 21.685 0 0 1 7.138-6.952h24.172a21.685 21.685 0 0 1 7.138 6.952l3.776 5.934 1-7 6 2a22.447 22.447 0 0 0 -14.333-13.732z" fill="#953528"/><path d="m26.705 22.962a40.26 40.26 0 0 1 -6.848-.348c-3.716-.468-7.46-.94-8.542-3.354-1.448-3.232 2.309-8.969 6.834-10.06 3.489-.843 7.206 1.129 9.91 3.768l7.76 1.2c2.729-3.2 7.03-5.934 11.032-4.967 4.525 1.094 8.282 6.831 6.834 10.063-1.082 2.414-4.826 2.886-8.542 3.354a35.393 35.393 0 0 1 -8.2.221z" fill="#c64635"/><path d="m53.314 55.118-.175-.224a29.147 29.147 0 0 1 -6.139-17.894 15 15 0 0 0 -15-15 15 15 0 0 0 -15 15 29.147 29.147 0 0 1 -6.139 17.894l-.175.224z" fill="#ffc239"/><path d="m28.936 22.313-1.436-15.338a4.524 4.524 0 0 1 4.5-4.975 4.524 4.524 0 0 1 4.5 4.975l-1.436 15.338z" fill="#ffc239"/><path d="m52.476 59.28c1.614-.68 2.524-1.459 2.524-2.28 0-2.761-10.3-5-23-5s-23 2.239-23 5c0 .821.911 1.6 2.525 2.28z" fill="#ffd55d"/><path d="m35.576 16.848a20.479 20.479 0 0 1 8.16-3.519c1.943-.375 3.505-.28 4.071.4a.819.819 0 0 1 .169.421c.148 1.143-1.173 2.432-3.1 3.156a27.671 27.671 0 0 1 -9.515 1.83z" fill="#953528"/><path d="m28.354 16.1a21.313 21.313 0 0 0 -7.09-2.775c-1.943-.375-3.5-.28-4.071.4a.819.819 0 0 0 -.169.421c-.148 1.143 1.173 2.432 3.1 3.156a30.212 30.212 0 0 0 8.517 1.835z" fill="#953528"/><path d="m23.16 47.623c9.53-1.683 21.762.712 26.665 1.842a29.129 29.129 0 0 1 -2.825-12.465 14.948 14.948 0 0 0 -18.659-14.532c-4.484 2.391-7.016 8.406-6.732 12.945a36.311 36.311 0 0 1 -1.109 9.363 2.343 2.343 0 0 0 2.66 2.847z" fill="#ffd55d"/><ellipse cx="32" cy="58.5" fill="#f4ac1c" rx="21" ry="3.5"/><path d="m12.846 57.07c3.282 1.219 10.616 2.07 19.154 2.07s15.872-.851 19.154-2.07c-3.282-1.219-10.616-2.07-19.154-2.07s-15.872.851-19.154 2.07z" fill="#f29100"/><path d="m36 58a3.989 3.989 0 0 0 -1.32-2.968c-.88-.019-1.77-.032-2.68-.032s-1.8.013-2.679.032a4 4 0 1 0 6.679 2.968z" fill="#ffc239"/><g fill="#ffd55d"><path d="m35.438 60.014a3.956 3.956 0 0 0 -.758-4.982c-.88-.019-1.77-.032-2.68-.032-.765 0-1.511.013-2.253.027a3.96 3.96 0 0 0 -.323 1.549 3.976 3.976 0 0 0 6.014 3.438z"/><path d="m32 2a4.51 4.51 0 0 0 -1.782.373 4.466 4.466 0 0 0 -.418 2.352l1.145 12.212a3.449 3.449 0 0 0 3.434 3.126h.9l1.221-13.088a4.525 4.525 0 0 0 -4.5-4.975z"/></g></svg>