<svg enable-background="new 0 0 64 64" viewBox="0 0 64 64" xmlns="http://www.w3.org/2000/svg"><g id="Layer_1"/><g id="Layer_2"/><g id="Layer_3"/><g id="Layer_4"/><g id="Layer_5"/><g id="Layer_6"/><g id="Layer_7"/><g id="Layer_8"/><g id="Layer_9"/><g id="Layer_10"/><g id="Layer_11"/><g id="Layer_12"/><g id="Layer_13"><g><g><path d="m36.8959961 11.1210938c-2.7255859-6.1508789-7.4487305-9.1411133-14.4394531-9.1411133-2.7827148 0-5.8598633.4384766-9.9775391 1.4208984l-1.7685547.421875 1.7241211.5771484c1.0742188.359375 2.6616211.9609375 4.0419922 2.0302734 1.3686523 1.0600586 2.6064453 2.2387695 3.8037109 3.3789062 3 2.8549805 5.8334961 5.5517578 9.8291016 5.5517578h.0004883c.5615234 0 1.1445312-.0537109 1.7324219-.159668l.2329102-.043457.1040039-.0864258c.5654297-.4702148 1.1362305-.9355469 1.7250977-1.378418.2685547-.2016602.5454102-.3930664.8222656-.5849609l.3564453-.2475586.4633789-.4267578.0571289.0463867.3193359-.2138672c.1655273-.1113281.3339844-.2167969.5019531-.3222656l.6518555-.4145508z" fill="#4cad38"/><path d="m45.6416016 40.7421875c-.3764648 0-.671875-.2128906-.7524414-.5429688-1.4980469-6.1962891-4.7524414-12.1513672-9.4116211-17.2216797-.9013672-.9804688-1.9335938-1.9946289-3.0678711-3.0141602l-.440918-.3964844.4506836-.3857422c.574707-.4912109 1.159668-.9711914 1.7602539-1.4365234l.3618164-.2802734.3237305.3232422c1.0688477 1.0668945 2.0493164 2.1396484 2.9140625 3.1894531 4.6186523 5.6025391 7.6523438 12.1323242 8.7734375 18.8833008.0668945.40625-.215332.7597656-.6865234.859375-.0336915.006836-.1206055.022461-.2246094.022461z" fill="#7b1d1c"/><path d="m18.3408203 62.015625c-7.0170898 0-12.4594727-7.8525391-12.4594727-14.6074219 0-6.0820312 4.2983398-9.9228516 11.4975586-10.2744141l.6835938-.0332031-.1508789.6679688c-.1582031.6972656-.3076172 1.3955078-.4248047 2.0976562-.0639648.3876953.2070312.7226562.6591797.8144531.0737305.015625.1450195.0234375.2143555.0234375.3623047 0 .6347656-.1972656.7114258-.515625.1953125-.8095703.440918-1.6640625.75-2.6152344l.1303711-.4003906.4189453.0439453c6.5302734.6914063 10.4291992 4.5019532 10.4291992 10.1914063 0 6.7548828-5.4423828 14.6074219-12.4594727 14.6074219z" fill="#c61e32"/><path d="m18.3583984 40.7421875c-.0986328 0-.1811523-.0146484-.2060547-.0185547-.4897461-.1035156-.7719727-.4570312-.7050781-.8632812 1.1210938-6.7509766 4.1547852-13.2807617 8.7734375-18.8833008 2.2392578-2.7172852 4.8164062-5.1791992 7.659668-7.3168945 1.4165039-1.0654297 2.9067383-2.0541992 4.4291992-2.9389648.7646484-.4443359 1.550293-.8706055 2.3344727-1.2666016.3959961-.1987305.793457-.3911133 1.2275391-.5942383.1557617-.0727539.3237305-.109375.4990234-.109375.4135742 0 .8081055.2104492 1.0288086.5498047.1962891.300293.3232422.6347656.4462891.9580078.046875.1235352.0932617.2451172.1420898.3598633.2597656.6088867-.0068359 1.3022461-.6074219 1.5791016-.3706055.1708984-.7382812.3466797-1.1049805.5273438-.7329102.3613281-1.456543.7426758-2.1713867 1.1411133-1.4277344.7983398-2.8291016 1.6801758-4.1650391 2.6206055-.4799805.3378906-.9501953.6967773-1.4150391 1.0517578-2.2329102 1.7021484-4.2397461 3.5224609-6.0014648 5.4389648-4.6601562 5.0722656-7.9150391 11.0273438-9.4116211 17.2207031-.078125.3291015-.3735351.5439452-.7524414.5439452z" fill="#7b1d1c"/><path d="m45.659668 62.015625c-7.0166016 0-12.4589844-7.8525391-12.4589844-14.6074219 0-5.6914062 3.8979492-9.5019531 10.4272461-10.1953125l.4189453-.0439453.1303711.4003906c.3110352.9580078.5571289 1.8144531.7509766 2.6191406.0771484.3173828.3496094.515625.7119141.515625.0693359 0 .140625-.0078125.2124023-.0224609.4541016-.0927734.7246094-.4277344.6601562-.8154297-.1162109-.7021484-.2661133-1.4003906-.4238281-2.0976562l-.1503906-.6669922.6831055.0332031c7.1992188.3525391 11.4970703 4.1933594 11.4970703 10.2734375-.0000001 6.7548828-5.4423829 14.6074219-12.4589844 14.6074219z" fill="#c61e32"/></g><path d="m46.3497925 36.6461182c-1.456665-5.7074585-4.2467651-11.1784058-8.2003174-15.9740601-.8873291-1.0769653-1.8475342-2.1178589-2.8428345-3.1176758.3032837-.2245483.5988159-.4576416.9080811-.675293 1.3235474-.9309692 2.7110596-1.803894 4.1234131-2.593811.7074585-.3954468 1.4246216-.7719116 2.1495972-1.1297607.3627319-.1791382.7269897-.3529663 1.0936279-.5219116.8372803-.3861694 1.2097778-1.3537598.8480225-2.2027588-.1572266-.3685913-.3339844-.7781982-.4955444-1.1468506-.1831055-.4203491-.5204468-.7415771-.9490967-.9046021-.4296265-.1645508-.8948975-.1479492-1.348938.0614624-.4052124.1889648-.8079834.3842163-1.2073364.5858765-.7957764.4013062-1.5900879.8319092-2.3604736 1.2800903-.2681885.1558838-.527832.331543-.7936401.4935913-5.7587892-12.7472534-19.3287355-9.3001098-26.6691896-7.430603-.2182617.0556641-.3725586.25-.3764648.4755249-.0039062.2250977.1430664.4252319.359375.4887085 1.8087769.5302124 3.8587646 1.1311646 5.5948486 2.475708 1.3416138 1.0389404 2.5743408 2.2120972 3.7665405 3.3466797 3.0615845 2.9136353 5.9727783 5.68573 10.1552734 5.6852417.1380615 0 .2824097-.0133667.4233398-.0195312-1.6780396 1.5073853-3.2525635 3.1204834-4.6775513 4.8499146-3.9536133 4.7957764-6.7436523 10.2668457-8.2003784 15.9744263-7.4594116.2454834-12.2488403 4.4041748-12.2488403 10.7614136 0 6.9775391 5.6524658 15.0877075 12.9395142 15.0877075s12.9390869-8.1101685 12.9390869-15.0877075c0-5.881958-4.1030884-9.878479-10.6227417-10.6401978 1.7250366-4.8297119 4.5120239-9.4315796 8.21875-13.4656982.9813843-1.0674438 2.0302734-2.0861206 3.1243896-3.0640869 1.0925293.9765625 2.1462402 2.0010986 3.1237793 3.0640869 3.7058716 4.0324097 6.4924316 8.6329956 8.2175903 13.4619751-6.5201416.7615356-10.6210938 4.7616577-10.6210938 10.6439209 0 6.9775391 5.6520386 15.0877075 12.9390869 15.0877075s12.9390259-8.1101685 12.9390259-15.0877075c.0000001-6.3575441-4.7893675-10.5166017-12.2489012-10.7617799zm-25.7109375-27.2136841c-1.2102661-1.1521606-2.4620361-2.3428955-3.843689-3.4135742-1.3157348-1.0188599-2.8047485-1.6467286-4.1956787-2.1119995 9.2987061-2.2196045 19.1580811-3.0988159 23.8209839 7.4245605-.2627563.1681519-.52771.3289795-.7872314.5026855-.6951904-.5653687-1.4799805-1.1080933-2.3341064-1.6207886-.175293-.6008911-.7990723-2.5658569-1.833252-3.9181519-.1664429-.218689-.4799194-.2606812-.7005615-.0932007-.2192383.1674194-.2611694.4813843-.0932617.7005615.5877075.7688599 1.034668 1.7925415 1.3267212 2.5802612-.7501831-.3973389-1.5307007-.7736816-2.3312378-1.1224365-.0039062-.0075684-.0036621-.0159912-.0079956-.0234375-.8085327-1.3909302-1.9528809-3.1665649-3.6357422-4.5609131-.2123413-.1757202-.5272827-.1459351-.7039795.0664062-.1757812.2124023-.1464844.527771.0664062.7040405 1.1461792.9493408 2.0290527 2.1062622 2.7233276 3.177002-1.130188-.4350586-2.2683105-.8139648-3.3756104-1.1292725-.257019-.5397949-1.0487671-1.986145-2.4649658-2.6887817-.246521-.1240234-.5477905-.0214844-.6697998.2255859-.1230469.2474976-.0219727.5472412.2255249.6697998.6817017.3381958 1.1971436.9241943 1.545166 1.4312134-1.0523071-.2550659-2.0552979-.4458618-2.9624634-.5582886-.2728882-.0371094-.5238037.1611328-.5574951.4345093-.0341797.2738647.1605835.5238647.4345093.5575562 1.2717896.1575928 2.7359009.4732666 4.2615967.9102173-.1903076.0377197-.3804321.0762939-.5707397.1140137-.8123779.1606445-1.6247559.321228-2.4366455.4867554-.2705078.0546875-.4452515.3187866-.3900757.5892944.0478516.2372437.2562866.4003296.4891357.4003296.0332031 0 .0664062-.003418.1000977-.0102539.8099365-.1645508 1.6208496-.3251953 2.4312744-.4852905.7728882-.152832 1.5457153-.305603 2.3175659-.4623413.0092773-.0018921.0159912-.0082397.0250244-.0106201 1.0113525.3498535 2.0240479.7471313 3.0095825 1.18573-.8396606.2772217-1.6971436.5240479-2.5444336.7479248-.3773804.0991211-.7532959.1987305-1.12677.3017578-.2661133.0737305-.4223022.3490601-.3486328.6151123.0610352.2216797.262207.3666382.4813843.3666382.0444336 0 .0888672-.0058594.1337891-.0180664.3690796-.1019897.7415771-.2001343 1.1150513-.2987671 1.1928711-.3147583 2.4240112-.6427002 3.5928955-1.1021729.9807129.487915 1.9112549 1.0145264 2.7571411 1.5730591-.2966309.0928955-.5910645.1904297-.8840332.2892456-1.164856.3925171-2.2701416.7557983-3.4721069.7177124-.253418-.0141602-.5077515.2040405-.5184937.4803467-.0107422.2758789.2045288.5082397.4804077.5184937.0809937.003418.1620483.0048828.2421265.0048828 1.2942505 0 2.4591064-.3930054 3.5878906-.774292.5174561-.1743164 1.0379028-.3505249 1.5734863-.4882202.0110474-.0028687.0187988-.0107422.02948-.0142822.0567017.0432739.1082153.0878296.1636963.1314087-.3983765.2800903-.8041382.5508423-1.1920776.8427124-.5960693.4480591-1.1730957.9186401-1.7453613 1.3942871l-.0966187.0181274c-4.6936646.8460694-7.6693116-1.9816894-11.1112061-5.25708zm9.6411743 37.9754638c0 6.5147095-5.2155762 14.0878296-11.939209 14.0878296-6.7241211 0-11.9396973-7.5731201-11.9396973-14.0878296 0-6.8294678 5.5196533-9.4866333 11.0029297-9.7542725-.1599121.7067871-.3115234 1.4150391-.4297485 2.1274414-.1107788.6679077.3383789 1.2605591 1.0682373 1.4089966.1083984.0224609.2142944.0332031.3178101.0332031.5927124 0 1.0814209-.3515015 1.2166138-.9129639.2091064-.864563.461792-1.7225952.7393188-2.5759888 5.1192016.5422975 9.9637451 3.2766115 9.9637451 9.6735841zm-2.1403198-24.7825317c-4.7190552 5.1359863-8.0164185 11.1702271-9.5342407 17.4506226-.0458984.1932983-.3305664.140564-.3637085.1347046-.0322266-.0068359-.3134766-.0702515-.28125-.265564 1.1053467-6.6591797 4.0999756-13.1040649 8.661377-18.6374512 2.2130127-2.6851807 4.7600098-5.1184082 7.571167-7.2318726 1.3977661-1.0515747 2.8706665-2.0289917 4.3777466-2.9048462.7533569-.4379272 1.5296021-.8592529 2.3078003-1.25177.390564-.1967773.7835693-.387146 1.2131958-.5878296.3008423-.1405029.6885986-.0286255.8723145.2529907.2377319.364502.3745728.8389893.5454712 1.2390137.1483765.3475952-.0039062.7440186-.3471069.9022217-.3744507.1727905-.746521.3505249-1.1170654.5330811-.7406006.3652344-1.4724121.7504272-2.1950073 1.1536865-1.442627.8070068-2.859436 1.697998-4.2108154 2.6489868-.4981079.3505859-.9859619.7237549-1.4680786 1.0917969-2.1818851 1.6635132-4.211304 3.4923706-6.0317996 5.472229zm7.720581 0c-.972168-1.0570679-2.0192261-2.0748291-3.1027832-3.048584.5679932-.4857178 1.1465454-.9610596 1.7403564-1.4208984 1.010376 1.0081787 1.9822998 2.0621338 2.880249 3.1517944 4.5614014 5.5333862 7.5560303 11.9782715 8.661377 18.6374512.0322266.1953125-.2490234.258728-.28125.265564-.031189.0058594-.3163452.0595703-.3637085-.1347046-1.5183105-6.2813721-4.8151855-12.3151245-9.5342407-17.4506226zm9.7993775 38.8703613c-6.7236328 0-11.939209-7.5731201-11.939209-14.0878296 0-6.3964233 4.8433838-9.1344604 9.9620972-9.6771851.2779541.8545532.5311279 1.7138062.7404785 2.5795898.1356812.5614624.6239014.9129639 1.2171021.9129639.1030273 0 .2094116-.0107422.3178101-.0332031.7293701-.1484375 1.1785278-.7410889 1.067749-1.4089966-.1181641-.7120972-.2697754-1.4199219-.4295654-2.1264038 5.4827271.2678223 11.0027466 2.9237061 11.0027466 9.7532349-.0000001 6.5147095-5.2155763 14.0878296-11.9392091 14.0878296z"/></g></g><g id="Layer_14"/><g id="Layer_15"/><g id="Layer_16"/><g id="Layer_17"/><g id="Layer_18"/><g id="Layer_19"/><g id="Layer_20"/><g id="Layer_21"/><g id="Layer_22"/><g id="Layer_23"/><g id="Layer_24"/><g id="Layer_25"/><g id="Layer_26"/><g id="Layer_27"/><g id="Layer_28"/><g id="Layer_29"/><g id="Layer_30"/><g id="Layer_31"/><g id="Layer_32"/><g id="Layer_33"/><g id="Layer_34"/><g id="Layer_35"/><g id="Layer_36"/><g id="Layer_37"/><g id="Layer_38"/><g id="Layer_39"/><g id="Layer_40"/><g id="Layer_41"/><g id="Layer_42"/></svg>