<svg viewBox="0 0 512 512" xmlns="http://www.w3.org/2000/svg"><g id="watermelon"><path d="m496.452 365.446-11.668-18.538-212.403-337.817a19.3 19.3 0 0 0 -32.762 0l-212.403 337.817-11.668 18.538-12.1 19.254a22.465 22.465 0 0 0 3.215 27.934c62.287 61.15 150.961 99.366 249.337 99.366s187.05-38.216 249.337-99.369a22.465 22.465 0 0 0 3.215-27.934z" fill="#37a024"/><path d="m484.784 346.908-212.403-337.817a19.3 19.3 0 0 0 -32.762 0l-212.403 337.817-11.668 18.538a290.906 290.906 0 0 0 27.352 28.774c56.926 52.26 132.6 81.047 213.1 81.047s156.177-28.787 213.1-81.047a290.906 290.906 0 0 0 27.349-28.774z" fill="#d3fd81"/><path d="m484.784 346.908a266.615 266.615 0 0 1 -30.776 33.452c-52.886 48.573-123.208 75.315-198.008 75.315s-145.122-26.742-198.008-75.315a266.615 266.615 0 0 1 -30.776-33.452l212.403-337.817a19.3 19.3 0 0 1 32.762 0z" fill="#ed1c24"/><g fill="#38070b"><path d="m150.623 284.712a13.3 13.3 0 1 1 -26.6 0c0-7.418 13.3-26.861 13.3-26.861s13.3 19.443 13.3 26.861z"/><path d="m175.177 389.058a13.3 13.3 0 1 1 -26.6 0c0-7.418 13.3-26.861 13.3-26.861s13.3 19.443 13.3 26.861z"/><path d="m387.977 284.712a13.3 13.3 0 1 1 -26.6 0c0-7.418 13.3-26.861 13.3-26.861s13.3 19.443 13.3 26.861z"/><path d="m359.331 389.058a13.3 13.3 0 1 1 -26.6 0c0-7.418 13.3-26.861 13.3-26.861s13.3 19.443 13.3 26.861z"/><path d="m269.3 109.08a13.3 13.3 0 1 1 -26.6 0c0-7.417 13.3-26.861 13.3-26.861s13.3 19.444 13.3 26.861z"/><path d="m201.777 190.7a13.3 13.3 0 1 1 -26.6 0c0-7.417 13.3-26.861 13.3-26.861s13.3 19.441 13.3 26.861z"/><path d="m336.823 190.7a13.3 13.3 0 1 1 -26.6 0c0-7.417 13.3-26.861 13.3-26.861s13.3 19.441 13.3 26.861z"/><path d="m269.3 284.712a13.3 13.3 0 1 1 -26.6 0c0-7.418 13.3-26.861 13.3-26.861s13.3 19.443 13.3 26.861z"/></g></g></svg>