<svg id="Layer_1" enable-background="new 0 0 36 36" height="512" viewBox="0 0 36 36" width="512" xmlns="http://www.w3.org/2000/svg"><g id="_x33_8"><g><g><path d="m18 2.4c-5.4 0-9.7 4.3-9.7 9.7v5.7c0 .6 3.3 2.4 9.7 2.4 6.7 0 9.7-1.8 9.7-2.4v-5.7c0-5.4-4.3-9.7-9.7-9.7z" fill="#f45170"/></g><g><path d="m22.7 3.6s3.8 5.2 1.6 7.1c-4.6 3.9-15.8 0-15.8 0-.1.5-.1.9-.1 1.4v5.7c0 .6 3.3 2.4 9.7 2.4 6.7 0 9.7-1.8 9.7-2.4v-5.7c-.1-3.7-2.1-6.8-5.1-8.5z" fill="#e93565"/></g><g><g><g><path d="m30.2 32.5c-8.2 1.5-16.3 1.5-24.5 0-1.7-.3-3-1.8-3.3-3.6-.6-3.4-.5-5.7 0-9.1.3-1.9 1.6-3.3 3.3-3.6 8.2-1.5 16.3-1.5 24.5 0 1.7.3 3 1.8 3.3 3.6.6 3.4.6 5.7 0 9.1-.2 1.8-1.6 3.3-3.3 3.6z" fill="#497bfe"/><g fill="#5094ff"><path d="m29.1 15.9c-1.3-.2-2.6-.4-3.9-.5v17.8c1.3-.1 2.6-.3 3.9-.5z"/><path d="m14.4 15.1c-1.8.1-3.5.3-5.3.5v17.4c1.8.2 3.5.4 5.3.5z"/><path d="m20.1 15.1c-1.2 0-2.4 0-3.6 0v18.5h3.6z"/></g><g><path d="m30.1 28.9c-8.1 1.3-16.2 1.3-24.3 0-1.7-.3-3-1.6-3.3-3.3-.5-3.1-.5-5 0-8.1.3-1.7 1.6-3 3.3-3.3 8.1-1.3 16.2-1.3 24.3 0 1.7.3 3 1.6 3.3 3.3.6 3.1.6 5 0 8.1-.3 1.7-1.6 3-3.3 3.3z" fill="#95dbf9"/><path d="m6 28.1c-1.3-.2-2.4-1.3-2.6-2.6-.5-3-.5-4.8 0-7.8.2-1.4 1.2-2.5 2.6-2.7 8-1.3 16-1.3 24 0 1.3.2 2.4 1.3 2.6 2.6.5 3 .5 4.8 0 7.8-.2 1.4-1.3 2.4-2.6 2.6-7.7 1.3-15.7 1.4-24 .1z" fill="#57b3fe"/></g><path d="m5.1 16.8c.1.4 1.2-.1 2.6-.5 1.3-.3 2.5-.3 2.4-.7s-1.3-.5-2.7-.2-2.4 1-2.3 1.4z" fill="#fff" opacity=".7"/><path d="m11.7 15c-.4 0-.8.1-.9.3s.2.4.6.4.8-.1.9-.3c0-.2-.2-.4-.6-.4z" fill="#fff" opacity=".7"/><ellipse cx="22.9" cy="27.6" fill="#fff" opacity=".7" rx="5" ry=".4" transform="matrix(.998 -.065 .065 .998 -1.737 1.534)"/></g></g><g><g fill="#497bfe"><path d="m29.3 19.2v6.2c0 .5-.4 1-1 1h-.1c-.4 0-.7-.2-.8-.4l-3.5-5v4.7c0 1-1.5 1-1.5 0v-6.2c0-.5.4-1 1-1h.1c.2 0 .5.1.8.4l3.5 5v-4.7c0-.2.1-.4.2-.5.3-.3.8-.3 1.1 0 .1.1.2.2.2.5z"/><path d="m15.7 19-1.5 4.8-1.4-4.8c-.2-.8-1.4-.8-1.7 0l-1.5 4.8-1.4-4.8c-.2-.6-.9-.7-1.3-.4-.2.2-.2.5-.2.8l2 6.3c.1.4.5.7.9.7s.8-.2.9-.7l1.4-4.4 1.4 4.4c.1.4.5.7.9.7s.7-.2.9-.7l2-6.3c.1-.4 0-.6-.2-.8-.2-.4-1-.3-1.2.4z"/><path d="m20.2 19.2v6.4c0 .5-.4.8-.8.8-.5 0-.8-.3-.8-.8v-6.4c.1-1.1 1.6-1.1 1.6 0z"/></g></g><g><g fill="#fff"><path d="m29.3 18.2v6.2c0 .5-.4 1-1 1h-.1c-.4 0-.7-.2-.8-.4l-3.5-5v4.7c0 .5-.4.8-.8.8s-.8-.3-.8-.8v-6.2c0-.3.1-.5.3-.7s.4-.3.7-.3h.1c.2 0 .5.1.8.4l3.5 5v-4.7c0-.2.1-.4.2-.5.3-.3.8-.3 1.1 0 .2.1.3.3.3.5z"/><path d="m15.7 18-1.5 4.8-1.4-4.8c-.1-.4-.5-.6-.8-.6-.4 0-.7.2-.8.6l-1.5 4.8-1.5-4.8c-.1-.4-.6-.7-1-.6s-.7.4-.5 1l2 6.3c.1.4.5.7.9.7s.8-.3.9-.7l1.4-4.4 1.4 4.4c.1.4.5.7.9.7s.7-.2.9-.7l2-6.3c.2-.5-.1-.9-.5-1-.3-.1-.7.1-.9.6z"/><path d="m20.2 18.2v6.4c0 .5-.4.8-.8.8-.5 0-.8-.3-.8-.8v-6.4c.1-1.1 1.6-1 1.6 0z"/></g></g><g><path d="m6.9 18.4c.1.2.4.2.7 0 .2-.2.4-.4.2-.6-.1-.2-.5-.3-.7-.1-.2.1-.3.5-.2.7z" fill="#f3f1fc" opacity=".5"/><path d="m7.1 18c0 .1.1 0 .2 0 .1-.1.1-.1.1-.2s-.1-.1-.2 0c-.1 0-.1.1-.1.2z" fill="#fff"/></g><g><path d="m11.4 18.4c.1.2.4.2.7 0s.4-.4.3-.6-.5-.3-.7-.1c-.3.2-.4.5-.3.7z" fill="#f3f1fc" opacity=".5"/><path d="m11.6 18c0 .1.1 0 .2 0 .1-.1.1-.1.1-.2s-.1-.1-.2 0c-.1 0-.1.1-.1.2z" fill="#fff"/></g><g><path d="m16 18.4c.1.2.4.2.7 0s.4-.4.3-.6-.5-.3-.7-.1c-.4.2-.5.5-.3.7z" fill="#f3f1fc" opacity=".5"/><path d="m16.2 18c0 .1.1 0 .2 0 .1-.1.1-.1.1-.2s-.1-.1-.2 0-.2.2-.1.2z" fill="#fff"/></g><g><path d="m18.9 18.4c.1.2.4.2.7 0s.4-.4.3-.6-.5-.3-.7-.1c-.3.2-.4.5-.3.7z" fill="#f3f1fc" opacity=".5"/><path d="m19.1 18c0 .1.1 0 .2 0 .1-.1.1-.1.1-.2s-.1-.1-.2 0-.1.2-.1.2z" fill="#fff"/></g><g><path d="m28 18.4c.1.2.4.2.7 0s.4-.4.3-.6-.5-.3-.7-.1c-.3.1-.4.5-.3.7z" fill="#f3f1fc" opacity=".5"/><path d="m28.2 18c0 .1.1 0 .2 0 .1-.1.1-.1.1-.2s-.1-.1-.2 0c-.1 0-.1.1-.1.2z" fill="#fff"/></g><g><path d="m22.7 18.6c.2.3.5.2.8 0s.5-.5.4-.7c-.2-.3-.6-.3-.9-.1s-.4.6-.3.8z" fill="#f3f1fc" opacity=".5"/><path d="m23 18.1c0 .1.1 0 .2 0 .1-.1.2-.1.1-.2s-.2-.1-.3 0c0 0-.1.2 0 .2z" fill="#fff"/></g></g><g fill="#fff"><path d="m11.9 7.9c.6 1.4 2.5 1.1 4.7.2s3.7-2.1 3.2-3.5-2.8-1.7-5-.8c-2.1.9-3.5 2.7-2.9 4.1z" opacity=".25"/><path d="m14.3 5.4c.1.4.7.3 1.2.1.6-.2 1-.6.8-.9-.1-.4-.7-.5-1.3-.2-.5.2-.9.7-.7 1z" opacity=".7"/></g></g><path d="m20.5 13.1c-.1.1-.1.3.1.3.8.1 1.5.3 1.5.3 0 .1-.7 0-1.5-.1-.2 0-.3.2-.2.3 1 1.3 1.8 2.6 1.7 2.6-.1.2-1.1-1-2.1-2.2-.1-.1-.3-.1-.3.1-.1.8-.3 1.5-.3 1.5-.1 0 0-.7.1-1.5 0-.2-.2-.3-.3-.2-1.3.9-2.6 1.8-2.6 1.7-.1-.1 1.1-1.1 2.3-2.1.1-.1.1-.3-.1-.3-.8-.1-1.5-.3-1.5-.3 0-.1.7 0 1.5.1.2 0 .3-.2.2-.3-1-1.3-1.8-2.6-1.7-2.6.1-.1 1.1 1.1 2.1 2.3.1.1.3.1.3-.1.1-.8.3-1.5.3-1.5.1 0 0 .7-.1 1.5 0 .2.2.3.3.2 1.3-.9 2.6-1.8 2.6-1.7.1-.1-1.1.9-2.3 2z" fill="#fff"/></g></svg>