<svg id="Capa_1" enable-background="new 0 0 510 510" height="512" viewBox="0 0 510 510" width="512" xmlns="http://www.w3.org/2000/svg" xmlns:xlink="http://www.w3.org/1999/xlink"><linearGradient id="lg1"><stop offset="0" stop-color="#a2e62e"/><stop offset=".1231" stop-color="#97de30"/><stop offset=".3395" stop-color="#79cb36"/><stop offset=".6234" stop-color="#4aab3f"/><stop offset=".9609" stop-color="#09804c"/><stop offset="1" stop-color="#017b4e"/></linearGradient><linearGradient id="SVGID_1_" gradientTransform="matrix(-.222 .778 -.778 .222 1520.972 2111.739)" gradientUnits="userSpaceOnUse" x1="-3299.395" x2="-3192.885" xlink:href="#lg1" y1="2202.192" y2="2308.702"/><linearGradient id="lg2"><stop offset="0" stop-color="#017b4e" stop-opacity="0"/><stop offset="1" stop-color="#026841"/></linearGradient><linearGradient id="SVGID_2_" gradientTransform="matrix(-.222 .778 -.778 .222 1520.972 2111.739)" gradientUnits="userSpaceOnUse" x1="-3172.111" x2="-3251.139" xlink:href="#lg2" y1="2306.177" y2="2279.835"/><linearGradient id="SVGID_3_" gradientTransform="matrix(-.707 .707 -.394 -.394 1578.066 2276.044)" gradientUnits="userSpaceOnUse" x1="-722.394" x2="-722.394" xlink:href="#lg2" y1="4156.506" y2="4307.611"/><linearGradient id="lg3"><stop offset="0" stop-color="#017b4e" stop-opacity="0"/><stop offset=".4829" stop-color="#01754a" stop-opacity=".483"/><stop offset="1" stop-color="#026841"/></linearGradient><linearGradient id="SVGID_4_" gradientTransform="matrix(-.707 .707 -.394 -.394 1578.066 2276.044)" gradientUnits="userSpaceOnUse" x1="-722.394" x2="-722.394" xlink:href="#lg3" y1="4013.204" y2="4211.911"/><linearGradient id="SVGID_5_" gradientUnits="userSpaceOnUse" x1="113.31" x2="333.25" y1="174.947" y2="394.888"><stop offset="0" stop-color="#fee97d"/><stop offset="1" stop-color="#fac600"/></linearGradient><linearGradient id="lg4"><stop offset="0" stop-color="#f89580" stop-opacity="0"/><stop offset="1" stop-color="#c5715a"/></linearGradient><linearGradient id="SVGID_6_" gradientUnits="userSpaceOnUse" x1="302.5" x2="239.023" xlink:href="#lg4" y1="330.049" y2="-45.521"/><linearGradient id="SVGID_7_" gradientUnits="userSpaceOnUse" x1="218.016" x2="218.016" xlink:href="#lg4" y1="306.354" y2="556.339"/><linearGradient id="SVGID_8_" gradientUnits="userSpaceOnUse" x1="303.242" x2="178.673" xlink:href="#lg4" y1="236.838" y2="112.269"/><linearGradient id="SVGID_9_" gradientUnits="userSpaceOnUse" x1="357.023" x2="286.322" xlink:href="#lg4" y1="270.548" y2="199.848"/><linearGradient id="SVGID_10_" gradientUnits="userSpaceOnUse" x1="196.781" x2="72.211" xlink:href="#lg4" y1="348.149" y2="223.579"/><linearGradient id="SVGID_11_" gradientUnits="userSpaceOnUse" x1="115.901" x2="-51.809" xlink:href="#lg4" y1="338.145" y2="170.435"/><linearGradient id="SVGID_12_" gradientUnits="userSpaceOnUse" x1="146.139" x2="75.439" xlink:href="#lg4" y1="383.748" y2="313.048"/><linearGradient id="SVGID_13_" gradientUnits="userSpaceOnUse" x1="215.039" x2="299.675" xlink:href="#lg1" y1="20.262" y2="182.481"/><linearGradient id="SVGID_14_" gradientTransform="matrix(0 -1 1 0 193.712 472.757)" gradientUnits="userSpaceOnUse" x1="444.164" x2="321.977" xlink:href="#lg2" y1="54.839" y2="54.839"/><linearGradient id="SVGID_15_" gradientTransform="matrix(0 -1 1 0 193.712 472.757)" gradientUnits="userSpaceOnUse" x1="388.264" x2="388.264" xlink:href="#lg2" y1="95.253" y2="261.765"/><linearGradient id="SVGID_16_" gradientTransform="matrix(0 -1 1 0 193.712 472.757)" gradientUnits="userSpaceOnUse" x1="388.264" x2="388.264" xlink:href="#lg3" y1="-33.622" y2="185.345"/><g><g><path d="m491.718 186.096c9.716-.774 17.235-8.293 18.009-18.009 2.115-26.562-8.077-55.316-30.024-77.263-21.946-21.947-50.701-32.139-77.263-30.024-9.716.774-17.235 8.293-18.009 18.009-2.115 26.562 8.077 55.316 30.024 77.263s50.701 32.139 77.263 30.024z" fill="url(#SVGID_1_)"/><path d="m390.083 66.451c-3.191 3.191-5.264 7.5-5.651 12.358-2.115 26.562 8.077 55.316 30.024 77.263s50.701 32.139 77.263 30.024c4.858-.387 9.167-2.46 12.358-5.651z" fill="url(#SVGID_2_)"/><path d="m409.29 150.523c1.645 1.891 3.362 3.745 5.166 5.55 21.947 21.947 50.701 32.139 77.263 30.024 9.716-.774 17.235-8.293 18.009-18.009 2.115-26.562-8.077-55.316-30.024-77.263-1.804-1.804-3.658-3.521-5.55-5.166l-66.03-1.165z" fill="url(#SVGID_3_)"/><path d="m448.402 124.771.963 54.551c13.854 5.597 28.405 7.885 42.353 6.775 9.716-.774 17.235-8.293 18.009-18.009 1.111-13.948-1.178-28.5-6.775-42.354z" fill="url(#SVGID_4_)"/></g><path d="m359.811 421.449c73.988-73.988 96.713-176.874 63.45-254.923-5.031-11.804-5.627-24.898-2.002-37.207 4.372-14.844 1.377-30.652-9.352-41.381-10.728-10.729-26.537-13.724-41.381-9.352-12.309 3.626-25.402 3.029-37.207-2.002-78.049-33.263-180.935-10.538-254.923 63.45-73.986 73.989-96.711 176.875-63.448 254.924 5.031 11.804 5.627 24.898 2.002 37.207-4.372 14.844-1.377 30.652 9.351 41.381s26.537 13.724 41.381 9.351c12.309-3.625 25.402-3.029 37.207 2.002 78.048 33.262 180.934 10.538 254.922-63.45z" fill="url(#SVGID_5_)"/><path d="m421.259 129.319c4.372-14.844 1.377-30.653-9.351-41.381-10.729-10.729-26.537-13.724-41.381-9.351-12.309 3.625-25.402 3.029-37.207-2.002-67.939-28.954-154.693-15.478-224.829 37.296l277.474 277.474c52.774-70.136 66.25-156.891 37.296-224.829-5.031-11.804-5.627-24.898-2.002-37.207z" fill="url(#SVGID_6_)"/><path d="m4.875 273.03c-8.869 42.408-5.684 84.955 10.073 121.928 5.031 11.804 5.627 24.898 2.002 37.207-4.372 14.844-1.377 30.653 9.351 41.381 10.728 10.729 26.537 13.724 41.381 9.351 12.309-3.625 25.402-3.029 37.207 2.002 78.049 33.263 180.935 10.538 254.923-63.45 43.188-43.189 68.9-96.224 76.215-148.419z" fill="url(#SVGID_7_)"/><g><circle cx="285.787" cy="219.383" fill="url(#SVGID_8_)" r="26.976"/><circle cx="347.116" cy="260.641" fill="url(#SVGID_9_)" r="15.311"/></g><g><circle cx="179.325" cy="330.693" fill="url(#SVGID_10_)" r="26.976"/><circle cx="92.401" cy="314.645" fill="url(#SVGID_11_)" r="36.319"/><circle cx="136.232" cy="373.841" fill="url(#SVGID_12_)" r="15.311"/></g><g><path d="m98.366 63.975c-12.518 11.951-12.518 29.085 0 41.036 34.222 32.673 88.741 53.821 150.185 53.822 61.444 0 115.963-21.149 150.185-53.822 12.518-11.951 12.518-29.085 0-41.036-34.222-32.673-88.741-53.821-150.185-53.821s-115.963 21.148-150.185 53.821z" fill="url(#SVGID_13_)"/><path d="m408.124 84.493c0-7.271-3.129-14.542-9.389-20.518-34.222-32.673-88.741-53.821-150.185-53.821s-115.963 21.148-150.185 53.821c-6.259 5.976-9.389 13.247-9.389 20.518z" fill="url(#SVGID_14_)"/><path d="m263.55 10.591c-4.95-.281-9.949-.437-15-.437-61.444 0-115.963 21.148-150.185 53.821-12.518 11.952-12.518 29.085 0 41.036 34.222 32.673 88.741 53.821 150.185 53.821 5.051 0 10.05-.157 15-.437l94.063-73.902z" fill="url(#SVGID_15_)"/><path d="m244.848 84.493-77.711-61.054c-27.228 9.408-50.801 23.379-68.772 40.536-12.518 11.952-12.518 29.085 0 41.036 17.971 17.157 41.544 31.129 68.772 40.537z" fill="url(#SVGID_16_)"/></g></g></svg>