<svg id="Flat_Gradient" height="512" viewBox="0 0 64 64" width="512" xmlns="http://www.w3.org/2000/svg" xmlns:xlink="http://www.w3.org/1999/xlink" data-name="Flat Gradient"><linearGradient id="linear-gradient" gradientUnits="userSpaceOnUse" x1="4.545" x2="59.455" y1="32" y2="32"><stop offset="0" stop-color="#ffa68d"/><stop offset="1" stop-color="#fd3a84"/></linearGradient><path d="m50.86322 50.64339a5.16209 5.16209 0 0 1 -7.55529 5.40382l-11.30793-5.94421-11.36786 5.974c-3.5991 2.08829-8.3357-1.38075-7.49536-5.4436l2.17151-12.6489-9.19646-8.97629a5.1603 5.1603 0 0 1 2.852-8.80617l12.729-1.85128 5.674-11.50788c1.71062-3.79488 7.54917-3.78268 9.26643-.01021l5.674 11.51809 12.719 1.85128a5.159 5.159 0 0 1 2.862 8.80617l-9.19646 8.97633zm-40.06072-12.20052-4.252 1.38085a1.00361 1.00361 0 0 0 .30887 1.95254c.00976.114 4.43584-1.41852 4.56085-1.42969a1.0009 1.0009 0 0 0 -.61772-1.9037zm21.23659 15.08774a1.00013 1.00013 0 0 0 -1.0007 1.00071v4.468a1.0007 1.0007 0 1 0 2.0014 0v-4.468a1.00013 1.00013 0 0 0 -1.0007-1.00071zm25.42215-13.72545-4.26179-1.39063a1.00053 1.00053 0 0 0 -.62147 1.90174l4.26173 1.39061a.98805.98805 0 0 0 .31076.04984 1.0035 1.0035 0 0 0 .31077-1.95156zm-12.5-24.00123a.99716.99716 0 0 0 .81014-.4124l2.63562-3.62559a1.00061 1.00061 0 0 0 -1.61836-1.17656l-2.63561 3.62554a1.00692 1.00692 0 0 0 .80822 1.58901zm-26.675-.43292a1.00082 1.00082 0 0 0 1.62024-1.1747l-2.63557-3.63531a1.00083 1.00083 0 0 0 -1.62024 1.1747z" fill="url(#linear-gradient)"/></svg>